<?xml version="1.0" encoding="UTF-8" standalone="no"?>
<!DOCTYPE svg PUBLIC "-//W3C//DTD SVG 1.1//EN" "http://www.w3.org/Graphics/SVG/1.1/DTD/svg11.dtd">
<svg width="100%" height="100%" viewBox="0 0 2048 1000" version="1.1" xmlns="http://www.w3.org/2000/svg" xmlns:xlink="http://www.w3.org/1999/xlink" xml:space="preserve" xmlns:serif="http://www.serif.com/" style="fill-rule:evenodd;clip-rule:evenodd;stroke-linejoin:round;stroke-miterlimit:2;">
    <g transform="matrix(1.08515,0,0,1.08515,1023.01,479.574)">
        <g id="welcia.eps" transform="matrix(1,0,0,1,-935.417,-422.917)">
            <g transform="matrix(4.16667,0,0,4.16667,0,0)">
                <path d="M365.874,203C411.307,203 448.135,169.638 448.135,128.485C448.135,87.33 411.307,53.968 365.874,53.968L82.261,53.968C36.83,53.968 0,87.33 0,128.485C0,169.638 36.83,203 82.261,203L365.874,203Z" style="fill:rgb(36,132,186);fill-rule:nonzero;"/>
                <path d="M362.238,47.737C362.238,74.042 340.84,95.366 314.444,95.366C288.048,95.366 266.65,74.042 266.65,47.737C266.65,21.43 288.048,0.106 314.444,0.106C340.84,0.106 362.238,21.43 362.238,47.737Z" style="fill:rgb(36,132,186);fill-rule:nonzero;"/>
                <path d="M367.61,198.994C409.872,198.994 444.129,167.426 444.129,128.485C444.129,89.542 409.872,57.974 367.61,57.974L80.525,57.974C38.264,57.974 4.005,89.542 4.005,128.485C4.005,167.426 38.264,198.994 80.525,198.994L367.61,198.994Z" style="fill:white;fill-rule:nonzero;"/>
                <path d="M366.171,192.316C405.704,192.316 437.749,163.678 437.749,128.35C437.749,93.023 405.704,64.384 366.171,64.384L81.994,64.384C42.462,64.384 10.416,93.023 10.416,128.35C10.416,163.678 42.462,192.316 81.994,192.316L366.171,192.316Z" style="fill:rgb(36,132,186);fill-rule:nonzero;"/>
                <path d="M115.817,102.172L104.447,144.405L94.494,102.213L94.502,102.172L84.238,102.172L84.245,102.213L74.256,144.555L62.737,102.172L43.923,102.172L64.417,167.684L83.415,167.684L89.37,143.663L95.324,167.684L113.971,167.684L134.631,102.172L115.817,102.172Z" style="fill:white;fill-rule:nonzero;"/>
                <rect x="206.355" y="79.832" width="20.158" height="87.852" style="fill:white;fill-rule:nonzero;"/>
                <rect x="303.95" y="102.004" width="20.157" height="65.68" style="fill:white;fill-rule:nonzero;"/>
                <path d="M167.385,112.758C173.769,112.758 177.464,118.469 177.464,126.364L156.971,126.364C158.65,117.293 161.002,112.758 167.385,112.758ZM167.049,155.424C163.521,155.424 156.467,154.836 156.467,140.055L198.629,140.055C198.629,106.711 184.351,100.496 167.385,100.496C150.419,100.496 135.47,110.742 135.47,133.419C135.47,156.096 144.036,169.534 167.889,169.534C191.742,169.534 198.293,153.072 198.293,146.018L177.464,146.018C177.464,153.24 170.577,155.424 167.049,155.424Z" style="fill:white;fill-rule:nonzero;"/>
                <path d="M296.057,141.984L273.715,141.984C273.715,153.742 268.508,155.086 265.484,155.086C262.461,155.086 256.582,153.406 256.582,134.762C256.582,116.116 262.629,114.604 265.82,114.604C269.012,114.604 273.715,116.452 273.715,125.355L296.057,125.355C296.057,111.413 286.146,100.494 266.996,100.494C247.847,100.494 233.568,111.077 233.568,135.098C233.568,159.118 245.999,169.532 265.148,169.532C284.298,169.532 296.057,158.781 296.057,141.984Z" style="fill:white;fill-rule:nonzero;"/>
                <path d="M361.541,155.014C357.892,155.014 353.796,151.721 353.796,146.557C353.796,141.393 358.515,136.318 366.883,136.318L371.69,136.318C372.581,152.788 365.459,155.014 361.541,155.014ZM392.612,151.987L392.612,119.67C392.612,111.212 385.846,100.173 366.35,100.173C346.407,100.173 336.08,107.651 336.08,120.738L357.001,120.738C357.713,113.972 361.097,111.658 364.479,111.658C367.862,111.658 371.735,112.993 371.735,119.67L371.735,125.341L371.735,125.279L363.768,125.279C346.407,125.279 332.073,131.244 332.073,148.604C332.073,162.848 341.332,169.437 353.262,169.437C362.61,169.437 369.866,164.078 371.958,158.664C371.958,158.664 371.869,164.718 372.67,167.684L393.68,167.684C393.68,167.684 392.612,161.068 392.612,151.987Z" style="fill:white;fill-rule:nonzero;"/>
                <path d="M358.665,47.737C358.665,72.075 338.866,91.805 314.444,91.805C290.021,91.805 270.224,72.075 270.224,47.737C270.224,23.397 290.021,3.668 314.444,3.668C338.866,3.668 358.665,23.397 358.665,47.737Z" style="fill:white;fill-rule:nonzero;"/>
                <path d="M351.924,47.737C351.924,68.364 335.144,85.087 314.444,85.087C293.745,85.087 276.965,68.364 276.965,47.737C276.965,27.107 293.745,10.386 314.444,10.386C335.144,10.386 351.924,27.107 351.924,47.737Z" style="fill:rgb(37,65,135);fill-rule:nonzero;"/>
                <path d="M325.574,47.736C325.574,53.98 320.591,59.042 314.444,59.042C308.298,59.042 303.314,53.98 303.314,47.736C303.314,41.492 308.298,36.43 314.444,36.43C320.591,36.43 325.574,41.492 325.574,47.736Z" style="fill:white;fill-rule:nonzero;"/>
            </g>
        </g>
        <g id="welcia.eps1" serif:id="welcia.eps">
        </g>
    </g>
</svg>
